HIERARCHY
ROOT Hips
{
	OFFSET 0.000000 0.000000 0.000000
	CHANNELS 6 Xposition Yposition Zposition Zrotation Yrotation Xrotation 
	JOINT LHipJoint
	{
		OFFSET 0.000000 0.000000 0.000000
		CHANNELS 3 Zrotation Yrotation Xrotation
		JOINT LeftUpLeg
		{
			OFFSET 1.363060 -1.794630 0.839290
			CHANNELS 3 Zrotation Yrotation Xrotation
			JOINT LeftLeg
			{
				OFFSET 2.448110 -6.726130 0.000000
				CHANNELS 3 Zrotation Yrotation Xrotation
				JOINT LeftFoot
				{
					OFFSET 2.562200 -7.039590 0.000000
					CHANNELS 3 Zrotation Yrotation Xrotation
					JOINT LeftToeBase
					{
						OFFSET 0.157640 -0.433110 2.322550
						CHANNELS 3 Zrotation Yrotation Xrotation
						End Site
						{
							OFFSET 0.000000 0.000000 0.000000
						}
					}
				}
			}
		}
	}
	JOINT RHipJoint
	{
		OFFSET 0.000000 0.000000 0.000000
		CHANNELS 3 Zrotation Yrotation Xrotation
		JOINT RightUpLeg
		{
			OFFSET -1.305520 -1.794630 0.839290
			CHANNELS 3 Zrotation Yrotation Xrotation
			JOINT RightLeg
			{
				OFFSET -2.542530 -6.985550 0.000000
				CHANNELS 3 Zrotation Yrotation Xrotation
				JOINT RightFoot
				{
					OFFSET -2.568260 -7.056230 0.000000
					CHANNELS 3 Zrotation Yrotation Xrotation
					JOINT RightToeBase
					{
						OFFSET -0.164730 -0.452590 2.363150
						CHANNELS 3 Zrotation Yrotation Xrotation
						End Site
						{
							OFFSET 0.000000 0.000000 0.000000
						}
					}
				}
			}
		}
	}
	JOINT LowerBack
	{
		OFFSET 0.000000 0.000000 0.000000
		CHANNELS 3 Zrotation Yrotation Xrotation
		JOINT Spine
		{
			OFFSET 0.028270 2.035590 -0.193380
			CHANNELS 3 Zrotation Yrotation Xrotation
			JOINT Spine1
			{
				OFFSET 0.056720 2.048850 -0.042750
				CHANNELS 3 Zrotation Yrotation Xrotation
				JOINT Neck
				{
					OFFSET 0.000000 0.000000 0.000000
					CHANNELS 3 Zrotation Yrotation Xrotation
					JOINT Neck1
					{
						OFFSET -0.054170 1.746240 0.172020
						CHANNELS 3 Zrotation Yrotation Xrotation
						JOINT Head
						{
							OFFSET 0.104070 1.761360 -0.123970
							CHANNELS 3 Zrotation Yrotation Xrotation
							End Site
							{
								OFFSET 0.000000 0.000000 0.000000
							}
						}
					}
				}
				JOINT LeftShoulder
				{
					OFFSET 0.000000 0.000000 0.000000
					CHANNELS 3 Zrotation Yrotation Xrotation
					JOINT LeftArm
					{
						OFFSET 3.362410 1.200890 -0.311210
						CHANNELS 3 Zrotation Yrotation Xrotation
						JOINT LeftForeArm
						{
							OFFSET 4.983000 -0.000000 -0.000000
							CHANNELS 3 Zrotation Yrotation Xrotation
							JOINT LeftHand
							{
								OFFSET 3.483560 -0.000000 -0.000000
								CHANNELS 3 Zrotation Yrotation Xrotation
								JOINT LeftFingerBase
								{
									OFFSET 0.000000 0.000000 0.000000
									CHANNELS 3 Zrotation Yrotation Xrotation
									JOINT LeftHandIndex1
									{
										OFFSET 0.715260 -0.000000 -0.000000
										CHANNELS 3 Zrotation Yrotation Xrotation
										End Site
										{
											OFFSET 0.000000 0.000000 0.000000
										}
									}
								}
								JOINT LThumb
								{
									OFFSET 0.000000 0.000000 0.000000
									CHANNELS 3 Zrotation Yrotation Xrotation
									End Site
									{
										OFFSET 0.000000 0.000000 0.000000
									}
								}
							}
						}
					}
				}
				JOINT RightShoulder
				{
					OFFSET 0.000000 0.000000 0.000000
					CHANNELS 3 Zrotation Yrotation Xrotation
					JOINT RightArm
					{
						OFFSET -3.136600 1.374050 -0.404650
						CHANNELS 3 Zrotation Yrotation Xrotation
						JOINT RightForeArm
						{
							OFFSET -5.241900 -0.000000 -0.000000
							CHANNELS 3 Zrotation Yrotation Xrotation
							JOINT RightHand
							{
								OFFSET -3.444170 -0.000000 -0.000000
								CHANNELS 3 Zrotation Yrotation Xrotation
								JOINT RightFingerBase
								{
									OFFSET 0.000000 0.000000 0.000000
									CHANNELS 3 Zrotation Yrotation Xrotation
									JOINT RightHandIndex1
									{
										OFFSET -0.622530 -0.000000 -0.000000
										CHANNELS 3 Zrotation Yrotation Xrotation
										End Site
										{
											OFFSET 0.000000 0.000000 0.000000
										}
									}
								}
								JOINT RThumb
								{
									OFFSET 0.000000 0.000000 0.000000
									CHANNELS 3 Zrotation Yrotation Xrotation
									End Site
									{
										OFFSET 0.000000 0.000000 0.000000
									}
								}
							}
						}
					}
				}
			}
		}
	}
}
MOTION
Frames: 4
Frame Time: 0.008333
2.486214 16.753202 1.320308 -151.895460 -89.569939 156.138419 -10.062562 3.202106 3.696364 -5.060523 2.687322 -14.850766 -1.309136 0.637211 28.880382 2.956673 15.872282 -16.387976 -2.554000 -0.000000 -45.756499 11.097501 -1.329963 0.734357 -1.959274 -14.014533 -12.623424 1.002925 -0.672855 24.813461 -1.781067 -8.530807 -7.175717 -0.357500 0.000000 -72.081600 -0.119527 -4.386027 -6.999089 0.010653 -4.526815 -3.444618 -3.527540 -4.611238 2.964933 14.661681 -25.866537 -12.721134 -0.773367 0.020097 -1.249211 0.000000 0.000000 0.000000 16.671153 14.548594 -1.273508 -39.061980 3.430080 -22.265443 -179.772196 -52.011851 -179.991509 -2.605007 -5.527310 0.152214 0.214770 0.715368 -0.000000 0.000000 0.000000 0.000000 0.000000 0.000000 0.000000 7.583479 -20.730061 -2.369878 33.283211 9.617703 -7.404667 179.345856 52.853136 179.911763 -13.740007 7.390360 -0.996456 0.436616 -0.632539 0.000000 0.000000 0.000000 0.000000 0.000000 0.000000 0.000000 
2.470403 16.753934 1.331783 2.523198 -88.203440 1.942888 -10.556930 3.276705 4.385054 -4.587399 0.124662 -15.703461 -1.266675 0.792090 29.493423 2.940100 15.679981 -16.546393 -2.535699 -0.000000 -45.739500 10.535456 -1.248956 0.254339 -1.607830 -15.951051 -11.977772 1.012139 -0.504499 24.204080 -1.887385 -9.326276 -6.851945 -0.451700 0.000000 -72.251100 -0.509588 -4.641620 -7.206835 -0.010466 -4.751511 -3.470279 -3.457174 -4.843400 3.006435 14.675477 -25.987110 -12.888644 -0.779889 0.023723 -1.291141 0.000000 0.000000 0.000000 16.814562 14.310492 -1.316154 -39.964177 3.212037 -22.052678 -179.759699 -51.318486 -179.990443 -2.728512 -5.467038 0.158025 0.223712 0.722486 -0.000000 0.000000 0.000000 0.000000 0.000000 0.000000 0.000000 7.516241 -20.988951 -2.425889 33.599099 9.749852 -7.334500 179.323895 52.528317 179.909637 -14.118310 7.399970 -1.026204 0.455043 -0.636094 -0.000000 0.000000 0.000000 0.000000 0.000000 0.000000 0.000000 
2.456071 16.758460 1.335735 -0.094116 -86.225584 4.704458 -10.572129 3.257251 4.764261 -4.229577 -1.613528 -16.063957 -1.225919 0.812666 29.614792 2.897420 15.342961 -16.513861 -2.465601 -0.000000 -45.781600 10.464404 -1.274710 0.028194 -1.365846 -16.993435 -11.401613 0.999615 -0.455033 23.707748 -2.034840 -10.284642 -6.574023 -0.560000 -0.000000 -72.352300 -0.615771 -4.797402 -7.336176 -0.008703 -4.896654 -3.483243 -3.439540 -4.987509 3.044938 14.708956 -26.137620 -13.062621 -0.782799 0.026965 -1.336768 0.000000 0.000000 0.000000 17.035635 14.111827 -1.365611 -40.903034 3.030567 -21.890783 -179.748310 -50.595893 -179.989198 -2.872660 -5.397372 0.164545 0.233901 0.728107 -0.000000 0.000000 0.000000 0.000000 0.000000 0.000000 0.000000 7.432836 -21.222269 -2.458201 34.120590 9.965342 -7.221591 179.291944 52.205143 179.907548 -14.398370 7.282938 -1.032073 0.470926 -0.637760 -0.000000 0.000000 0.000000 0.000000 0.000000 0.000000 0.000000 
2.440721 16.766836 1.338568 -1.275087 -84.154524 6.031200 -10.537482 3.252585 5.146500 -3.834290 -3.341290 -16.394357 -1.192644 0.824709 29.587963 2.836241 14.915734 -16.383926 -2.357901 -0.000000 -45.886400 10.438400 -1.303477 -0.193088 -1.123700 -18.063193 -10.765092 0.985654 -0.400669 23.095620 -2.176742 -11.244331 -6.191050 -0.702300 -0.000000 -72.476600 -0.707576 -4.942817 -7.474049 -0.005416 -5.032933 -3.494978 -3.424490 -5.122542 3.099401 14.701158 -26.305402 -13.256168 -0.774728 0.031622 -1.387882 0.000000 0.000000 0.000000 17.263273 13.950663 -1.416534 -41.918726 2.813304 -21.744070 -179.735448 -49.857053 -179.987800 -3.028926 -5.326076 0.171559 0.244968 0.734366 -0.000000 0.000000 0.000000 0.000000 0.000000 0.000000 0.000000 7.253863 -21.476053 -2.493470 34.815621 10.213838 -7.113663 179.257960 51.910795 179.905870 -14.550778 7.044928 -1.011666 0.482405 -0.636303 -0.000000 0.000000 0.000000 0.000000 0.000000 0.000000 0.000000 
